<svg width="247" height="30" viewBox="0 0 247 30" fill="none" xmlns="http://www.w3.org/2000/svg">
<g id="Group">
<g id="Group_2">
<path id="Vector" d="M17.1248 5.9465H13.7227L15.4095 2.97325L17.1248 0L18.8401 2.97325L20.5555 5.9465H17.1248Z" fill="#00B8E9"/>
<path id="Vector_2" d="M10.292 17.811H6.86136L8.5767 14.8378L10.292 11.8645L12.0074 14.8378L13.6941 17.811H10.292Z" fill="#00B8E9"/>
<path id="Vector_3" d="M20.5555 23.729H17.1248L18.8401 20.7843L20.5555 17.811L22.2708 20.7843L23.9862 23.729H20.5555Z" fill="#00B8E9"/>
<path id="Vector_4" d="M27.4168 23.729H23.9861L25.7015 20.7843L27.4168 17.811L29.1322 20.7843L30.8475 23.729H27.4168Z" fill="#00B8E9"/>
<path id="Vector_5" d="M23.9861 17.811H20.5555L22.2708 14.8378L23.9861 11.8645L25.7015 14.8378L27.4168 17.811H23.9861Z" fill="#544BFD"/>
<path id="Vector_6" d="M6.86135 23.729H3.43068L5.14602 20.7843L6.86135 17.811L8.57669 20.7843L10.292 23.729H6.86135Z" fill="#544BFD"/>
<path id="Vector_7" d="M17.1248 29.6753H13.7227L15.4095 26.702L17.1248 23.7288L18.8401 26.702L20.5555 29.6753H17.1248Z" fill="#544BFD"/>
<path id="Vector_8" d="M20.5555 11.8644H17.1248L18.8401 8.8912L20.5555 5.94653L22.2708 8.8912L23.9862 11.8644H20.5555Z" fill="#2325C9"/>
<path id="Vector_9" d="M13.7227 11.8644H10.292L12.0074 8.8912L13.7227 5.94653L15.4095 8.8912L17.1248 11.8644H13.7227Z" fill="#2325C9"/>
<path id="Vector_10" d="M30.8475 29.6753H27.4168L29.1321 26.702L30.8475 23.7288L32.5628 26.702L34.2782 29.6753H30.8475Z" fill="#2325C9"/>
<path id="Vector_11" d="M3.43068 29.6753H0L1.71534 26.702L3.43068 23.7288L5.14601 26.702L6.86135 29.6753H3.43068Z" fill="#2325C9"/>
<path id="Vector_12" d="M10.292 17.811H13.6941L12.0074 20.7843L10.292 23.729L8.5767 20.7843L6.86136 17.811H10.292Z" fill="#2325C9"/>
<path id="Vector_13" d="M23.9861 17.811H27.4168L25.7015 20.7843L23.9861 23.729L22.2708 20.7843L20.5555 17.811H23.9861Z" fill="#2325C9"/>
<path id="Vector_14" d="M20.5555 23.7288H23.9862L22.2708 26.702L20.5555 29.6753L18.8401 26.702L17.1248 23.7288H20.5555Z" fill="#2325C9"/>
<path id="Vector_15" d="M17.1248 5.94653H20.5555L18.8401 8.8912L17.1248 11.8644L15.4095 8.8912L13.7227 5.94653H17.1248Z" fill="#544BFD"/>
<path id="Vector_16" d="M13.7227 11.8645H17.1248L15.4095 14.8378L13.7227 17.811L12.0074 14.8378L10.292 11.8645H13.7227Z" fill="#544BFD"/>
<path id="Vector_17" d="M27.4168 23.7288H30.8475L29.1322 26.702L27.4168 29.6753L25.7015 26.702L23.9861 23.7288H27.4168Z" fill="#544BFD"/>
<path id="Vector_18" d="M20.5555 11.8645H23.9862L22.2708 14.8378L20.5555 17.811L18.8401 14.8378L17.1248 11.8645H20.5555Z" fill="#00B8E9"/>
<path id="Vector_19" d="M6.86135 23.7288H10.292L8.57669 26.702L6.86135 29.6753L5.14602 26.702L3.43068 23.7288H6.86135Z" fill="#00B8E9"/>
</g>
<g id="Group_3">
<g id="Group_4">
<path id="Vector_20" d="M54.319 22.5281L52.8324 18.2683H47.0003L45.4565 22.5281H42.7977L48.4869 7.17578H51.26L56.9492 22.5281H54.319ZM52.1749 16.1241L50.7168 11.9501C50.6596 11.7786 50.5739 11.5213 50.4881 11.1782C50.3738 10.8352 50.288 10.5207 50.1736 10.1776C50.0593 9.83455 49.9735 9.54867 49.9163 9.29136C49.8592 9.57725 49.7734 9.89173 49.659 10.2348C49.5447 10.5779 49.4589 10.9209 49.3731 11.2354C49.2874 11.5499 49.2016 11.7786 49.173 11.9501L47.715 16.1241H52.1749Z" fill="white"/>
<path id="Vector_21" d="M71.9298 22.528H69.0423L64.2966 15.5809L62.7814 16.8102V22.528H60.2655V7.23293H62.7814V14.5517C63.0958 14.1801 63.4103 13.8084 63.7248 13.4082C64.0393 13.0365 64.3537 12.6648 64.6682 12.2646L68.9852 7.20435H71.8155L66.0977 13.8942L71.9298 22.528Z" fill="white"/>
<path id="Vector_22" d="M75.2461 22.528V7.23291H77.762V22.528H75.2461Z" fill="white"/>
<path id="Vector_23" d="M83.0509 22.528V7.23291H85.5668V20.3838H92.0565V22.528H83.0509Z" fill="white"/>
<path id="Vector_24" d="M105.465 22.5281L103.978 18.2683H98.1459L96.6307 22.5281H93.9719L99.6611 7.17578H102.434L108.123 22.5281H105.465ZM103.321 16.1241L101.862 11.9501C101.805 11.7786 101.72 11.5213 101.634 11.1782C101.519 10.8352 101.434 10.5207 101.319 10.1776C101.205 9.83455 101.119 9.54867 101.062 9.29136C101.005 9.57725 100.919 9.89173 100.805 10.2348C100.69 10.5779 100.605 10.9209 100.519 11.2354C100.433 11.5499 100.347 11.7786 100.29 11.9501L98.8321 16.1241H103.321Z" fill="white"/>
</g>
<g id="Group_5">
<g id="Group_6">
<path id="Vector_25" d="M130.709 22.2993L128.908 17.6107H122.99L121.189 22.2993H119.445L125.22 7.5188H126.763L132.481 22.2993H130.709ZM128.393 16.1241L126.678 11.4927C126.649 11.3783 126.563 11.1782 126.478 10.8923C126.392 10.6064 126.306 10.3205 126.192 10.0346C126.106 9.74874 126.02 9.49144 125.963 9.3199C125.906 9.60579 125.82 9.86309 125.734 10.149C125.648 10.4349 125.591 10.6636 125.506 10.8923C125.42 11.121 125.363 11.3211 125.305 11.4927L123.562 16.1241H128.393Z" fill="white"/>
<path id="Vector_26" d="M150.349 14.8089C150.349 16.4671 150.035 17.8394 149.435 18.9543C148.834 20.0693 147.948 20.8984 146.804 21.4702C145.661 22.0419 144.26 22.2992 142.63 22.2992H138.628V7.57593H143.059C144.546 7.57593 145.832 7.86182 146.919 8.40501C148.005 8.9482 148.834 9.74869 149.435 10.8351C150.063 11.8929 150.349 13.2365 150.349 14.8089ZM148.548 14.8661C148.548 13.551 148.32 12.4646 147.891 11.5784C147.462 10.7207 146.804 10.0918 145.947 9.66292C145.089 9.23409 144.06 9.03396 142.83 9.03396H140.372V20.8412H142.459C144.489 20.8412 146.004 20.3552 147.033 19.326C148.034 18.354 148.548 16.8388 148.548 14.8661Z" fill="white"/>
<path id="Vector_27" d="M168.046 7.57595L162.757 22.2993H161.042L155.753 7.57595H157.554L161.013 17.2676C161.156 17.6679 161.27 18.0395 161.385 18.3826C161.499 18.7256 161.585 19.0687 161.671 19.4118C161.756 19.7549 161.842 20.0693 161.899 20.3552C161.956 20.0407 162.042 19.7263 162.128 19.3832C162.214 19.0401 162.328 18.6971 162.442 18.354C162.557 17.9823 162.671 17.6107 162.814 17.2104L166.245 7.54736H168.046V7.57595Z" fill="white"/>
<path id="Vector_28" d="M174.164 22.2992V7.57593H175.879V22.2992H174.164Z" fill="white"/>
<path id="Vector_29" d="M192.375 18.3825C192.375 19.2688 192.146 20.0121 191.718 20.6124C191.289 21.2128 190.688 21.6988 189.888 22.0133C189.116 22.3278 188.201 22.4993 187.143 22.4993C186.572 22.4993 186.057 22.4707 185.571 22.4136C185.085 22.3564 184.628 22.2706 184.199 22.1848C183.77 22.0705 183.427 21.9561 183.112 21.8132V20.1836C183.627 20.3837 184.227 20.5839 184.942 20.7554C185.657 20.9269 186.429 21.0127 187.229 21.0127C187.972 21.0127 188.601 20.9269 189.116 20.7268C189.631 20.5267 190.002 20.2408 190.288 19.8691C190.545 19.4975 190.688 19.0401 190.688 18.5255C190.688 18.0109 190.574 17.6106 190.345 17.2675C190.117 16.9245 189.745 16.61 189.23 16.3527C188.716 16.0668 188.03 15.7809 187.143 15.4664C186.514 15.2377 185.971 15.009 185.485 14.7231C184.999 14.4658 184.599 14.1513 184.284 13.8083C183.97 13.4652 183.713 13.0935 183.541 12.6361C183.37 12.1787 183.284 11.6927 183.284 11.1209C183.284 10.349 183.484 9.66287 183.884 9.09109C184.284 8.51932 184.828 8.09048 185.542 7.80459C186.257 7.5187 187.058 7.34717 187.972 7.34717C188.744 7.34717 189.488 7.43293 190.145 7.57588C190.803 7.71882 191.432 7.91895 191.975 8.17625L191.432 9.63428C190.888 9.40557 190.345 9.23404 189.745 9.09109C189.145 8.94815 188.544 8.86238 187.915 8.86238C187.286 8.86238 186.743 8.94815 186.314 9.14827C185.885 9.31981 185.542 9.6057 185.314 9.92017C185.085 10.2632 184.971 10.6635 184.971 11.1209C184.971 11.6355 185.085 12.0643 185.285 12.4074C185.514 12.7505 185.857 13.065 186.343 13.3223C186.829 13.5796 187.458 13.8655 188.258 14.1513C189.116 14.4658 189.859 14.8089 190.46 15.152C191.06 15.495 191.517 15.9239 191.832 16.4385C192.232 16.9816 192.375 17.6106 192.375 18.3825Z" fill="white"/>
<path id="Vector_30" d="M212.273 14.9233C212.273 16.0668 212.13 17.096 211.844 18.0109C211.558 18.9543 211.129 19.7262 210.558 20.4123C209.986 21.0699 209.3 21.5845 208.442 21.9562C207.613 22.3278 206.641 22.4993 205.526 22.4993C204.382 22.4993 203.382 22.3278 202.553 21.9562C201.695 21.5845 201.009 21.0699 200.437 20.4123C199.865 19.7548 199.465 18.9257 199.179 18.0109C198.893 17.0674 198.75 16.0382 198.75 14.8947C198.75 13.3795 199.008 12.0644 199.494 10.9208C199.98 9.77725 200.752 8.891 201.752 8.26204C202.753 7.63308 204.039 7.3186 205.555 7.3186C207.013 7.3186 208.242 7.63308 209.243 8.26204C210.243 8.891 210.987 9.77725 211.501 10.8922C212.016 12.0644 212.273 13.3795 212.273 14.9233ZM200.552 14.9233C200.552 16.1812 200.723 17.2676 201.095 18.1538C201.438 19.0687 202.01 19.7834 202.724 20.2694C203.468 20.7554 204.382 21.0127 205.526 21.0127C206.67 21.0127 207.613 20.7554 208.328 20.2694C209.042 19.7834 209.586 19.0687 209.957 18.1538C210.3 17.239 210.472 16.1526 210.472 14.9233C210.472 13.0364 210.072 11.5498 209.271 10.4634C208.471 9.4056 207.241 8.86241 205.555 8.86241C204.411 8.86241 203.468 9.11971 202.724 9.60572C201.981 10.0917 201.438 10.8065 201.066 11.6927C200.723 12.579 200.552 13.6654 200.552 14.9233Z" fill="white"/>
<path id="Vector_31" d="M223.651 7.57593C224.852 7.57593 225.853 7.71887 226.653 8.03335C227.454 8.31924 228.026 8.77666 228.426 9.40562C228.826 10.006 228.998 10.8065 228.998 11.7499C228.998 12.5218 228.855 13.1794 228.569 13.694C228.283 14.2086 227.911 14.6374 227.454 14.9519C226.996 15.2664 226.51 15.5237 225.996 15.6952L230.055 22.2992H228.054L224.452 16.1526H221.393V22.2992H219.678V7.57593H223.651ZM223.566 9.06255H221.393V14.7232H223.737C224.938 14.7232 225.824 14.4659 226.396 13.9799C226.968 13.4938 227.254 12.7791 227.254 11.8071C227.254 10.8065 226.939 10.0918 226.339 9.69151C225.738 9.26268 224.824 9.06255 223.566 9.06255Z" fill="white"/>
<path id="Vector_32" d="M240.29 14.9805L244.207 7.60452H246.037L241.119 16.61V22.3278H239.404V16.6672L234.487 7.57593H236.374L240.29 14.9805Z" fill="white"/>
</g>
</g>
</g>
</g>
</svg>
