<svg width="247" height="30" viewBox="0 0 247 30" fill="none" xmlns="http://www.w3.org/2000/svg">
<g id="Group 427322957">
<g id="Group">
<g id="Group_2">
<path id="Vector" d="M17.1248 5.9465H13.7227L15.4095 2.97325L17.1248 0L18.8401 2.97325L20.5555 5.9465H17.1248Z" fill="#00B8E9"/>
<path id="Vector_2" d="M10.292 17.8109H6.86136L8.5767 14.8377L10.292 11.8644L12.0074 14.8377L13.6941 17.8109H10.292Z" fill="#00B8E9"/>
<path id="Vector_3" d="M20.5555 23.7288H17.1248L18.8401 20.7842L20.5555 17.8109L22.2708 20.7842L23.9862 23.7288H20.5555Z" fill="#00B8E9"/>
<path id="Vector_4" d="M27.4168 23.7288H23.9861L25.7015 20.7842L27.4168 17.8109L29.1322 20.7842L30.8475 23.7288H27.4168Z" fill="#00B8E9"/>
<path id="Vector_5" d="M23.9861 17.8109H20.5555L22.2708 14.8377L23.9861 11.8644L25.7015 14.8377L27.4168 17.8109H23.9861Z" fill="#544BFD"/>
<path id="Vector_6" d="M6.86135 23.7288H3.43068L5.14602 20.7842L6.86135 17.8109L8.57669 20.7842L10.292 23.7288H6.86135Z" fill="#544BFD"/>
<path id="Vector_7" d="M17.1248 29.6754H13.7227L15.4095 26.7021L17.1248 23.7289L18.8401 26.7021L20.5555 29.6754H17.1248Z" fill="#544BFD"/>
<path id="Vector_8" d="M20.5555 11.8644H17.1248L18.8401 8.8912L20.5555 5.94653L22.2708 8.8912L23.9862 11.8644H20.5555Z" fill="#2325C9"/>
<path id="Vector_9" d="M13.7227 11.8644H10.292L12.0074 8.8912L13.7227 5.94653L15.4095 8.8912L17.1248 11.8644H13.7227Z" fill="#2325C9"/>
<path id="Vector_10" d="M30.8475 29.6754H27.4168L29.1321 26.7021L30.8475 23.7289L32.5628 26.7021L34.2782 29.6754H30.8475Z" fill="#2325C9"/>
<path id="Vector_11" d="M3.43068 29.6754H0L1.71534 26.7021L3.43068 23.7289L5.14601 26.7021L6.86135 29.6754H3.43068Z" fill="#2325C9"/>
<path id="Vector_12" d="M10.292 17.8109H13.6941L12.0074 20.7842L10.292 23.7288L8.5767 20.7842L6.86136 17.8109H10.292Z" fill="#2325C9"/>
<path id="Vector_13" d="M23.9861 17.8109H27.4168L25.7015 20.7842L23.9861 23.7288L22.2708 20.7842L20.5555 17.8109H23.9861Z" fill="#2325C9"/>
<path id="Vector_14" d="M20.5555 23.7289H23.9862L22.2708 26.7021L20.5555 29.6754L18.8401 26.7021L17.1248 23.7289H20.5555Z" fill="#2325C9"/>
<path id="Vector_15" d="M17.1248 5.94653H20.5555L18.8401 8.8912L17.1248 11.8644L15.4095 8.8912L13.7227 5.94653H17.1248Z" fill="#544BFD"/>
<path id="Vector_16" d="M13.7227 11.8644H17.1248L15.4095 14.8377L13.7227 17.8109L12.0074 14.8377L10.292 11.8644H13.7227Z" fill="#544BFD"/>
<path id="Vector_17" d="M27.4168 23.7289H30.8475L29.1322 26.7021L27.4168 29.6754L25.7015 26.7021L23.9861 23.7289H27.4168Z" fill="#544BFD"/>
<path id="Vector_18" d="M20.5555 11.8644H23.9862L22.2708 14.8377L20.5555 17.8109L18.8401 14.8377L17.1248 11.8644H20.5555Z" fill="#00B8E9"/>
<path id="Vector_19" d="M6.86135 23.7289H10.292L8.57669 26.7021L6.86135 29.6754L5.14602 26.7021L3.43068 23.7289H6.86135Z" fill="#00B8E9"/>
</g>
<g id="Group_3">
<g id="Group_4">
<path id="Vector_20" d="M54.3191 22.5281L52.8324 18.2684H47.0003L45.4565 22.5281H42.7977L48.4869 7.17584H51.26L56.9492 22.5281H54.3191ZM52.1749 16.1242L50.7168 11.9502C50.6597 11.7787 50.5739 11.5214 50.4881 11.1783C50.3738 10.8352 50.288 10.5208 50.1737 10.1777C50.0593 9.83462 49.9735 9.54873 49.9164 9.29143C49.8592 9.57732 49.7734 9.89179 49.659 10.2349C49.5447 10.5779 49.4589 10.921 49.3732 11.2355C49.2874 11.55 49.2016 11.7787 49.173 11.9502L47.715 16.1242H52.1749Z" fill="#040363"/>
<path id="Vector_21" d="M71.9298 22.5281H69.0424L64.2966 15.581L62.7814 16.8103V22.5281H60.2655V7.23303H62.7814V14.5518C63.0959 14.1801 63.4103 13.8085 63.7248 13.4082C64.0393 13.0366 64.3538 12.6649 64.6682 12.2647L68.9852 7.20444H71.8155L66.0977 13.8943L71.9298 22.5281Z" fill="#040363"/>
<path id="Vector_22" d="M75.2462 22.5281V7.23303H77.762V22.5281H75.2462Z" fill="#040363"/>
<path id="Vector_23" d="M83.051 22.5281V7.23303H85.5668V20.384H92.0565V22.5281H83.051Z" fill="#040363"/>
<path id="Vector_24" d="M105.465 22.5281L103.978 18.2684H98.1459L96.6307 22.5281H93.972L99.6612 7.17584H102.434L108.123 22.5281H105.465ZM103.321 16.1242L101.862 11.9502C101.805 11.7787 101.72 11.5214 101.634 11.1783C101.519 10.8352 101.434 10.5208 101.319 10.1777C101.205 9.83462 101.119 9.54873 101.062 9.29143C101.005 9.57732 100.919 9.89179 100.805 10.2349C100.69 10.5779 100.605 10.921 100.519 11.2355C100.433 11.55 100.347 11.7787 100.29 11.9502L98.8321 16.1242H103.321Z" fill="#040363"/>
</g>
<g id="Group_5">
<g id="Group_6">
<path id="Vector_25" d="M130.709 22.2994L128.908 17.6108H122.99L121.189 22.2994H119.445L125.22 7.51889H126.763L132.481 22.2994H130.709ZM128.393 16.1242L126.678 11.4928C126.649 11.3784 126.563 11.1783 126.478 10.8924C126.392 10.6065 126.306 10.3206 126.192 10.0347C126.106 9.74883 126.02 9.49153 125.963 9.31999C125.906 9.60588 125.82 9.86319 125.734 10.1491C125.649 10.435 125.591 10.6637 125.506 10.8924C125.42 11.1211 125.363 11.3212 125.305 11.4928L123.562 16.1242H128.393Z" fill="#040363"/>
<path id="Vector_26" d="M150.349 14.8091C150.349 16.4673 150.035 17.8395 149.435 18.9545C148.834 20.0695 147.948 20.8986 146.804 21.4703C145.661 22.0421 144.26 22.2994 142.63 22.2994H138.628V7.57611H143.059C144.546 7.57611 145.832 7.862 146.919 8.40519C148.005 8.94838 148.834 9.74887 149.435 10.8353C150.063 11.893 150.349 13.2367 150.349 14.8091ZM148.548 14.8663C148.548 13.5512 148.32 12.4648 147.891 11.5786C147.462 10.7209 146.804 10.0919 145.947 9.6631C145.089 9.23427 144.06 9.03415 142.83 9.03415H140.372V20.8414H142.459C144.489 20.8414 146.004 20.3554 147.033 19.3262C148.034 18.3541 148.548 16.8389 148.548 14.8663Z" fill="#040363"/>
<path id="Vector_27" d="M168.046 7.5761L162.757 22.2994H161.042L155.753 7.5761H157.554L161.013 17.2678C161.156 17.668 161.27 18.0397 161.385 18.3827C161.499 18.7258 161.585 19.0689 161.671 19.4119C161.756 19.755 161.842 20.0695 161.899 20.3554C161.956 20.0409 162.042 19.7264 162.128 19.3833C162.214 19.0403 162.328 18.6972 162.443 18.3541C162.557 17.9825 162.671 17.6108 162.814 17.2106L166.245 7.54752H168.046V7.5761Z" fill="#040363"/>
<path id="Vector_28" d="M174.164 22.2994V7.57611H175.879V22.2994H174.164Z" fill="#040363"/>
<path id="Vector_29" d="M192.375 18.3827C192.375 19.269 192.146 20.0123 191.718 20.6127C191.289 21.213 190.688 21.699 189.888 22.0135C189.116 22.328 188.201 22.4995 187.143 22.4995C186.572 22.4995 186.057 22.4709 185.571 22.4138C185.085 22.3566 184.628 22.2708 184.199 22.1851C183.77 22.0707 183.427 21.9563 183.112 21.8134V20.1838C183.627 20.3839 184.227 20.5841 184.942 20.7556C185.657 20.9271 186.429 21.0129 187.229 21.0129C187.972 21.0129 188.601 20.9271 189.116 20.727C189.631 20.5269 190.002 20.241 190.288 19.8693C190.545 19.4977 190.688 19.0403 190.688 18.5257C190.688 18.0111 190.574 17.6108 190.345 17.2678C190.117 16.9247 189.745 16.6102 189.23 16.3529C188.716 16.067 188.03 15.7811 187.143 15.4666C186.514 15.2379 185.971 15.0092 185.485 14.7233C184.999 14.466 184.599 14.1516 184.284 13.8085C183.97 13.4654 183.713 13.0938 183.541 12.6363C183.37 12.1789 183.284 11.6929 183.284 11.1211C183.284 10.3492 183.484 9.66309 183.884 9.09131C184.284 8.51953 184.828 8.09069 185.542 7.8048C186.257 7.51891 187.058 7.34738 187.972 7.34738C188.744 7.34738 189.488 7.43315 190.145 7.57609C190.803 7.71904 191.432 7.91916 191.975 8.17646L191.432 9.6345C190.889 9.40579 190.345 9.23425 189.745 9.09131C189.145 8.94836 188.544 8.8626 187.915 8.8626C187.286 8.8626 186.743 8.94836 186.314 9.14849C185.885 9.32002 185.542 9.60591 185.314 9.92039C185.085 10.2635 184.971 10.6637 184.971 11.1211C184.971 11.6357 185.085 12.0646 185.285 12.4076C185.514 12.7507 185.857 13.0652 186.343 13.3225C186.829 13.5798 187.458 13.8657 188.258 14.1516C189.116 14.466 189.859 14.8091 190.46 15.1522C191.06 15.4952 191.517 15.9241 191.832 16.4387C192.232 16.9819 192.375 17.6108 192.375 18.3827Z" fill="#040363"/>
<path id="Vector_30" d="M212.273 14.9234C212.273 16.067 212.13 17.0962 211.844 18.0111C211.558 18.9545 211.13 19.7264 210.558 20.4125C209.986 21.0701 209.3 21.5847 208.442 21.9563C207.613 22.328 206.641 22.4995 205.526 22.4995C204.383 22.4995 203.382 22.328 202.553 21.9563C201.695 21.5847 201.009 21.0701 200.437 20.4125C199.865 19.755 199.465 18.9259 199.179 18.0111C198.893 17.0676 198.75 16.0384 198.75 14.8949C198.75 13.3796 199.008 12.0646 199.494 10.921C199.98 9.77744 200.752 8.89118 201.752 8.26222C202.753 7.63326 204.039 7.31879 205.555 7.31879C207.013 7.31879 208.242 7.63326 209.243 8.26222C210.243 8.89118 210.987 9.77744 211.501 10.8924C212.016 12.0646 212.273 13.3796 212.273 14.9234ZM200.552 14.9234C200.552 16.1814 200.723 17.2677 201.095 18.154C201.438 19.0688 202.01 19.7836 202.724 20.2696C203.468 20.7556 204.383 21.0129 205.526 21.0129C206.67 21.0129 207.613 20.7556 208.328 20.2696C209.043 19.7836 209.586 19.0688 209.957 18.154C210.3 17.2392 210.472 16.1528 210.472 14.9234C210.472 13.0366 210.072 11.55 209.271 10.4636C208.471 9.40578 207.241 8.86259 205.555 8.86259C204.411 8.86259 203.468 9.11989 202.724 9.6059C201.981 10.0919 201.438 10.8066 201.066 11.6929C200.723 12.5792 200.552 13.6655 200.552 14.9234Z" fill="#040363"/>
<path id="Vector_31" d="M223.651 7.57611C224.852 7.57611 225.853 7.71906 226.653 8.03353C227.454 8.31942 228.026 8.77685 228.426 9.4058C228.826 10.0062 228.998 10.8067 228.998 11.7501C228.998 12.522 228.855 13.1795 228.569 13.6941C228.283 14.2088 227.911 14.6376 227.454 14.9521C226.996 15.2665 226.51 15.5238 225.996 15.6954L230.055 22.2994H228.054L224.452 16.1528H221.393V22.2994H219.678V7.57611H223.651ZM223.566 9.06274H221.393V14.7234H223.737C224.938 14.7234 225.824 14.4661 226.396 13.98C226.968 13.494 227.254 12.7793 227.254 11.8073C227.254 10.8067 226.939 10.0919 226.339 9.69169C225.738 9.26286 224.824 9.06274 223.566 9.06274Z" fill="#040363"/>
<path id="Vector_32" d="M240.29 14.9807L244.207 7.6047H246.037L241.119 16.6102V22.328H239.404V16.6674L234.487 7.57611H236.374L240.29 14.9807Z" fill="#040363"/>
</g>
</g>
</g>
</g>
</g>
</svg>
